<?xml version="1.0" encoding="UTF-8"?>
<!DOCTYPE svg PUBLIC "-//W3C//DTD SVG 1.1//EN" "http://www.w3.org/Graphics/SVG/1.1/DTD/svg11.dtd">
<!-- Creator: CorelDRAW Home & Student X8 -->
<svg xmlns="http://www.w3.org/2000/svg" xml:space="preserve" width="210mm" height="297mm" version="1.1" style="shape-rendering:geometricPrecision; text-rendering:geometricPrecision; image-rendering:optimizeQuality; fill-rule:evenodd; clip-rule:evenodd"
viewBox="0 0 21000 29700"
 xmlns:xlink="http://www.w3.org/1999/xlink">
 <defs>
  <style type="text/css">
   <![CDATA[
    .str6 {stroke:#373435;stroke-width:20}
    .str1 {stroke:#373435;stroke-width:20.1}
    .str3 {stroke:#373435;stroke-width:10}
    .str0 {stroke:#373435;stroke-width:10.1}
    .str4 {stroke:#FEFEFE;stroke-width:10.1}
    .str2 {stroke:#373435;stroke-width:20.1;stroke-dasharray:84.660000 84.660000}
    .str5 {stroke:#373435;stroke-width:10.1;stroke-dasharray:84.660000 84.660000}
    .fil1 {fill:none}
    .fil8 {fill:black}
    .fil6 {fill:#4C4C4C}
    .fil0 {fill:#666666}
    .fil3 {fill:#7F7F7F}
    .fil2 {fill:#B2B2B2}
    .fil7 {fill:#CCCCCC}
    .fil5 {fill:#FEFEFE}
    .fil4 {fill:white}
   ]]>
  </style>
 </defs>
 <g id="Plan_x0020_1">
  <metadata id="CorelCorpID_0Corel-Layer"/>
  <polygon class="fil0 str0" points="4085,17772 4085,19220 4085,20669 4084,22117 4084,23565 4178,23574 4272,23583 4366,23591 4460,23600 4563,23595 4666,23590 4769,23584 4872,23579 4985,23584 5098,23588 5211,23593 5324,23597 5438,23590 5553,23583 5667,23575 5781,23568 5901,23575 6021,23581 6141,23588 6261,23594 6378,23588 6495,23582 6612,23575 6729,23569 6850,23569 6971,23570 7091,23570 7212,23570 7276,23541 7341,23513 7405,23484 7469,23455 7510,23448 7552,23441 7593,23434 7634,23427 7666,23409 7698,23391 7730,23373 7762,23355 7803,23345 7845,23334 7886,23324 7927,23313 7977,23267 8028,23220 8078,23174 8128,23127 8133,23088 8138,23049 8142,23009 8147,22970 8156,22892 8165,22813 8174,22735 8183,22656 8160,22592 8138,22528 8115,22463 8092,22399 8110,22328 8129,22256 8147,22185 8165,22113 8138,22070 8110,22028 8083,21985 8055,21942 8055,21889 8055,21835 8055,21782 8055,21728 8032,21678 8009,21628 7986,21578 7963,21528 7963,21417 7963,21307 7963,21196 7963,21085 7927,21032 7890,20978 7854,20925 7817,20871 7849,20810 7881,20750 7913,20689 7945,20628 7908,20546 7872,20464 7835,20382 7798,20300 7771,20264 7744,20229 7716,20193 7689,20157 7694,20089 7698,20022 7703,19954 7707,19886 7675,19847 7643,19808 7611,19768 7579,19729 7579,19676 7579,19622 7579,19569 7579,19515 7547,19476 7515,19437 7482,19397 7450,19358 7450,19312 7450,19265 7450,19219 7450,19172 7395,19154 7340,19137 7285,19119 7230,19101 7097,19087 6965,19073 6832,19058 6699,19044 6598,19044 6498,19044 6397,19044 6296,19044 6269,19015 6241,18987 6214,18958 6186,18929 6145,18911 6104,18894 6062,18876 6021,18858 5994,18790 5966,18723 5939,18655 5911,18587 5865,18548 5819,18509 5773,18469 5727,18430 5714,18369 5700,18309 5687,18248 5673,18187 5613,18162 5554,18137 5494,18112 5434,18087 5416,18051 5398,18016 5379,17980 5361,17944 5297,17919 5233,17894 5168,17869 5104,17844 5040,17826 4976,17809 4912,17791 4848,17773 4738,17770 4628,17766 4518,17763 4408,17759 4327,17762 4247,17766 4166,17769 "/>
  <polyline class="fil1 str0" points="6535,22942 6483,22932 6431,22925 6370,22948 6308,22969 6222,22944 6136,22922 6050,22952 5963,22978 5872,22946 5780,22916 5699,22948 5618,22980 5531,22955 5445,22926 5363,22947 5280,22970 5212,22946 5144,22923 5087,22949 5030,22975 4964,22949 4898,22921 4840,22946 4781,22969 4710,22940 4639,22914 4566,22938 4495,22974 "/>
  <polyline class="fil1 str0" points="7688,22376 7618,22386 7547,22399 7463,22400 7378,22399 7248,22364 7118,22332 6998,22361 6878,22387 6750,22355 6623,22325 6510,22357 6397,22390 6277,22364 6157,22335 6043,22356 5929,22379 5834,22355 5740,22332 5661,22358 5581,22384 5489,22358 5397,22330 5316,22355 5235,22378 5137,22349 5038,22323 4877,22347 4718,22383 "/>
  <polyline class="fil1 str0" points="7514,21874 7460,21865 7405,21858 7341,21881 7276,21902 7186,21877 7096,21855 7018,21894 6940,21930 6832,21888 6723,21848 6638,21880 6553,21913 6463,21882 6372,21848 6286,21875 6200,21902 6132,21888 6064,21875 6001,21891 5938,21908 5878,21896 5818,21882 5748,21893 5677,21902 5600,21863 5522,21827 5449,21861 5378,21906 "/>
  <polyline class="fil1 str0" points="7144,21459 7042,21462 6940,21468 6903,21467 6865,21463 6738,21448 6611,21435 6491,21464 6371,21490 6253,21470 6134,21452 6013,21473 5891,21493 5770,21467 5650,21438 5539,21469 5428,21502 5330,21467 5233,21435 5154,21449 5074,21463 4982,21449 4890,21433 4809,21458 4728,21481 4630,21452 4531,21426 4430,21451 4331,21486 "/>
  <polyline class="fil1 str0" points="7519,21167 7458,21180 7397,21195 7306,21165 7215,21132 7176,21131 7137,21132 6941,21167 6746,21198 6619,21165 6491,21135 6379,21168 6266,21200 6146,21174 6026,21145 5937,21169 5847,21194 5728,21168 5608,21143 5529,21169 5450,21195 5358,21168 5266,21140 5185,21166 5103,21189 5005,21160 4906,21134 4805,21158 4706,21194 "/>
  <polyline class="fil1 str0" points="7188,20860 7127,20873 7065,20888 6987,20877 6908,20864 6782,20848 6655,20835 6535,20865 6414,20891 6287,20858 6159,20828 6047,20861 5934,20893 5814,20867 5694,20838 5580,20860 5466,20882 5371,20858 5277,20836 5198,20862 5118,20888 5026,20861 4934,20833 4853,20859 4772,20882 4673,20853 4575,20827 4473,20851 4374,20887 "/>
  <polyline class="fil1 str0" points="7397,20625 7334,20628 7271,20630 7148,20585 7024,20543 6867,20582 6709,20618 6581,20585 6454,20555 6341,20588 6229,20620 6108,20594 5988,20565 5874,20587 5760,20610 5665,20585 5571,20563 5492,20589 5412,20615 5320,20588 5228,20560 5147,20586 5066,20609 4968,20580 4869,20554 4767,20578 4668,20614 "/>
  <polyline class="fil1 str0" points="7028,20284 6937,20304 6846,20323 6704,20287 6561,20255 6441,20285 6321,20311 6193,20278 6066,20248 5956,20295 5847,20342 5724,20302 5600,20258 5486,20297 5372,20337 5277,20295 5183,20256 5091,20296 4999,20337 4920,20296 4840,20253 4757,20273 4678,20302 4543,20316 4481,20247 4381,20267 4280,20307 "/>
  <polyline class="fil1 str0" points="6940,19884 6859,19894 6777,19903 6653,19866 6530,19831 6425,19870 6321,19906 6178,19864 6034,19824 5931,19842 5828,19860 5699,19849 5569,19834 5495,19868 5422,19903 5287,19866 5151,19832 5072,19857 4993,19884 4901,19857 4809,19829 4728,19855 4647,19878 4548,19849 4450,19823 4348,19847 4249,19882 "/>
  <polyline class="fil1 str0" points="7409,19753 7300,19761 7190,19767 7095,19732 6999,19699 6879,19729 6759,19755 6632,19723 6504,19693 6391,19725 6279,19757 6158,19732 6038,19703 5924,19724 5810,19747 5715,19723 5621,19700 5542,19716 5462,19733 5370,19716 5278,19698 5197,19723 5116,19746 5018,19717 4919,19691 4818,19715 4718,19751 "/>
  <polyline class="fil1 str0" points="6990,19621 6912,19609 6833,19596 6707,19581 6580,19568 6460,19597 6339,19623 6212,19591 6084,19561 5972,19583 5859,19606 5739,19590 5619,19571 5511,19600 5403,19630 5302,19598 5201,19568 5138,19594 5074,19621 4926,19592 4778,19561 4737,19589 4697,19615 4598,19586 4500,19559 4398,19584 4299,19619 "/>
  <polyline class="fil1 str0" points="7309,19494 7231,19482 7152,19470 7026,19454 6899,19441 6788,19463 6677,19482 6541,19457 6404,19434 6291,19459 6178,19484 6058,19466 5938,19444 5824,19465 5710,19488 5615,19464 5521,19442 5442,19468 5362,19494 5270,19467 5178,19439 5097,19465 5016,19488 4918,19459 4819,19433 4717,19457 4618,19492 "/>
  <polyline class="fil1 str0" points="7140,19348 6971,19349 6802,19348 6682,19327 6561,19309 6444,19334 6327,19355 6203,19345 6078,19337 5953,19357 5828,19377 5708,19351 5588,19322 5474,19344 5359,19367 5265,19342 5170,19320 5091,19346 5012,19372 4920,19345 4828,19317 4747,19343 4665,19366 4567,19337 4468,19311 4367,19335 4268,19371 "/>
  <polyline class="fil1 str0" points="7450,19212 7389,19225 7328,19241 7250,19229 7171,19216 7044,19200 6917,19187 6797,19217 6677,19243 6550,19211 6422,19181 6310,19213 6197,19245 6077,19220 5957,19191 5843,19212 5728,19235 5634,19211 5539,19188 5460,19214 5381,19240 5289,19214 5197,19186 5116,19211 5034,19234 4936,19205 4838,19179 4736,19203 4637,19239 "/>
  <polygon class="fil0 str0" points="4085,17769 4085,18432 4085,19095 5612,19095 7139,19095 6929,19071 6719,19046 6513,19046 6306,19046 6247,18988 6188,18929 6107,18895 6025,18861 5969,18725 5912,18588 5825,18513 5737,18437 5706,18313 5674,18188 5559,18140 5443,18091 5403,18021 5362,17950 5237,17899 5111,17847 4980,17808 4848,17769 4639,17760 4429,17750 4257,17760 "/>
  <polygon class="fil2 str0" points="4086,16435 4086,17102 4086,17769 4256,17759 4425,17748 4632,17761 4838,17774 4972,17810 5105,17846 5232,17896 5358,17945 5398,18020 5438,18095 5555,18142 5671,18189 5704,18314 5737,18438 5824,18513 5911,18588 5964,18726 6017,18863 6104,18900 6190,18936 6247,18993 6304,19050 6514,19048 6723,19045 6970,19076 7216,19107 7280,19122 7343,19136 7470,19130 7596,19123 7723,19102 7849,19081 7976,19058 8102,19035 8189,19006 8275,18977 8352,18941 8428,18905 8525,18861 8621,18817 8661,18778 8701,18739 8723,18689 8741,18638 8758,18563 8770,18487 8783,18370 8795,18252 8801,18146 8803,18039 8790,17929 8774,17818 8790,17697 8804,17576 8794,17452 8784,17327 8780,17202 8779,17077 8765,16953 8741,16829 8690,16642 8592,16532 8487,16494 8382,16456 8112,16464 7842,16471 7499,16453 7156,16435 6857,16461 6557,16487 6264,16456 5971,16425 5681,16459 5391,16492 5128,16453 4865,16414 4585,16446 4305,16477 4196,16456 "/>
  <polyline class="fil1 str0" points="8770,17782 8658,17771 8546,17759 8429,17774 8312,17788 8121,17782 7930,17776 7740,17794 7550,17811 7336,17791 7121,17770 6959,17791 6796,17811 6617,17788 6438,17765 6301,17777 6164,17788 "/>
  <polyline class="fil1 str1" points="6748,18546 6885,18404 7021,18262 "/>
  <polyline class="fil1 str1" points="6877,18616 7015,18476 7153,18335 "/>
  <polyline class="fil1 str2" points="6812,18578 6955,18432 7098,18285 "/>
  <polyline class="fil1 str1" points="8233,18671 8229,18658 8222,18645 8202,18615 8176,18587 8145,18559 8107,18536 8041,18521 7973,18509 7934,18496 7899,18479 7870,18453 7848,18423 "/>
  <polyline class="fil1 str1" points="8344,18622 8336,18598 8324,18575 8302,18546 8274,18520 8233,18487 8186,18460 8122,18447 8055,18437 8020,18425 7987,18408 7966,18390 7951,18369 "/>
  <polyline class="fil1 str0" points="8223,18648 8279,18626 8334,18604 "/>
  <polyline class="fil1 str1" points="8192,18600 8243,18573 8294,18545 "/>
  <polyline class="fil1 str1" points="8147,18558 8190,18526 8233,18493 "/>
  <polyline class="fil1 str1" points="8091,18527 8111,18490 8131,18453 "/>
  <polyline class="fil1 str1" points="8021,18516 8040,18479 8059,18442 "/>
  <polyline class="fil1 str1" points="7948,18498 7979,18459 8009,18420 "/>
  <polyline class="fil1 str1" points="7879,18454 7924,18423 7968,18392 "/>
  <polyline class="fil1 str1" points="8122,18538 8156,18502 8189,18465 "/>
  <polygon class="fil3 str0" points="7613,18558 7515,18591 7416,18624 7381,18553 7346,18481 7424,18481 7501,18481 7557,18520 "/>
  <polyline class="fil1 str1" points="6418,18805 6476,18755 6533,18705 "/>
  <polyline class="fil1 str1" points="6631,18814 6690,18866 6748,18918 "/>
  <polyline class="fil1 str1" points="7016,18881 7073,18831 7130,18781 "/>
  <polyline class="fil1 str3" points="5870,18093 5927,18043 5984,17993 "/>
  <polyline class="fil1 str3" points="5985,18282 6043,18334 6101,18386 "/>
  <polyline class="fil1 str1" points="6857,18074 6915,18024 6972,17974 "/>
  <polyline class="fil1 str1" points="7314,18092 7373,18144 7431,18196 "/>
  <polyline class="fil1 str1" points="7784,18074 7841,18024 7898,17974 "/>
  <polygon class="fil4 str0" points="4930,16833 4877,16839 4824,16841 4747,16838 4671,16827 4656,16818 4650,16804 4659,16789 4677,16778 4699,16772 4723,16768 4742,16765 4758,16758 4771,16742 4782,16725 4795,16713 4812,16705 4838,16706 4861,16715 4874,16728 4883,16744 4893,16760 4905,16774 4931,16784 4957,16793 4969,16804 4970,16817 4953,16828 "/>
  <polygon class="fil4 str0" points="5552,17042 5499,17048 5446,17050 5369,17047 5293,17036 5278,17027 5272,17013 5281,16998 5299,16987 5321,16981 5345,16977 5364,16974 5380,16967 5393,16951 5404,16934 5417,16922 5434,16914 5460,16915 5483,16924 5496,16937 5505,16953 5514,16969 5527,16983 5553,16993 5579,17002 5590,17013 5592,17026 5575,17037 "/>
  <polygon class="fil4 str0" points="6173,16833 6121,16839 6068,16841 5990,16838 5915,16827 5899,16818 5893,16804 5903,16789 5920,16778 5943,16772 5967,16768 5986,16765 6002,16758 6015,16742 6026,16725 6039,16713 6056,16705 6082,16706 6105,16715 6118,16728 6127,16744 6136,16760 6149,16774 6175,16784 6200,16793 6212,16804 6214,16817 6197,16828 "/>
  <polygon class="fil4 str0" points="6856,17051 6804,17058 6750,17059 6673,17056 6598,17046 6582,17037 6576,17022 6585,17008 6603,16997 6626,16991 6649,16987 6668,16983 6685,16977 6698,16961 6709,16943 6722,16931 6739,16924 6765,16925 6788,16933 6801,16947 6810,16963 6819,16979 6832,16992 6858,17002 6883,17012 6895,17023 6897,17035 6880,17046 "/>
  <polygon class="fil4 str0" points="7539,16842 7487,16849 7433,16850 7356,16847 7281,16837 7265,16828 7259,16813 7268,16799 7286,16788 7309,16782 7332,16778 7351,16774 7368,16768 7381,16752 7392,16734 7405,16722 7422,16715 7447,16716 7471,16724 7484,16738 7493,16754 7502,16770 7514,16783 7540,16793 7566,16803 7578,16814 7580,16826 7563,16837 "/>
  <polygon class="fil4 str0" points="8259,17080 8206,17086 8153,17088 8076,17085 8000,17074 7985,17065 7979,17051 7988,17036 8006,17025 8028,17019 8052,17015 8071,17012 8087,17005 8100,16989 8111,16972 8124,16960 8141,16952 8167,16953 8190,16962 8203,16975 8212,16991 8222,17007 8234,17021 8260,17031 8286,17040 8298,17051 8299,17064 8282,17075 "/>
  <polygon class="fil4 str0" points="4930,17374 4877,17381 4824,17382 4747,17379 4671,17369 4656,17360 4650,17345 4659,17331 4677,17320 4699,17314 4723,17310 4742,17306 4758,17300 4771,17284 4782,17266 4795,17254 4812,17247 4838,17248 4861,17256 4874,17270 4883,17286 4893,17302 4905,17315 4931,17325 4957,17335 4969,17346 4970,17358 4953,17369 "/>
  <polygon class="fil4 str0" points="7637,17374 7584,17381 7531,17382 7454,17379 7379,17369 7363,17360 7357,17345 7366,17331 7384,17320 7406,17314 7430,17310 7449,17306 7465,17300 7478,17284 7490,17266 7502,17254 7519,17247 7545,17248 7568,17256 7581,17270 7590,17286 7600,17302 7612,17315 7638,17325 7664,17335 7676,17346 7677,17358 7660,17369 "/>
  <polygon class="fil5 str0" points="5912,17271 6004,17230 6095,17189 6131,17268 6166,17346 6039,17309 "/>
  <polygon class="fil5 str0" points="6095,17189 6047,17243 5999,17297 6038,17309 6076,17320 6086,17255 "/>
  <polyline class="fil1 str1" points="6983,17519 6962,17513 6939,17513 6919,17516 6901,17521 6885,17532 6875,17546 6875,17563 6881,17581 6887,17596 6892,17610 6889,17627 6880,17643 6866,17653 6848,17658 6826,17656 6805,17649 6791,17641 6782,17631 "/>
  <polyline class="fil1 str1" points="6874,17556 6846,17509 6817,17462 "/>
  <polyline class="fil1 str1" points="8034,17585 7929,17539 7824,17492 "/>
  <polyline class="fil1 str1" points="7910,17528 7906,17588 7901,17647 "/>
  <polygon class="fil3 str0" points="4086,15710 4086,16073 4086,16435 4541,16561 5037,16616 5619,16548 6201,16478 6900,16538 7599,16601 7999,16554 8381,16463 8378,16449 8375,16435 8331,16393 8286,16351 8289,16296 8291,16240 8280,16184 8268,16128 8337,16084 8405,16040 8414,15980 8423,15919 8461,15886 8494,15849 8496,15826 8494,15803 8515,15773 8530,15742 8513,15720 8482,15705 8424,15651 8362,15605 8295,15573 8227,15550 8162,15534 8098,15524 8026,15539 7953,15552 7831,15520 7708,15476 7494,15220 7295,14913 6522,15136 5828,15386 5434,15438 5040,15490 4919,15472 4794,15465 4599,15555 4437,15645 4354,15654 4270,15663 4178,15687 "/>
  <polyline class="fil1 str0" points="4675,16245 4768,16254 4860,16259 4967,16251 5074,16245 5146,16259 5217,16273 5310,16269 5402,16264 5477,16274 5551,16282 5650,16266 5748,16250 5825,16258 5903,16268 5977,16261 6051,16254 6093,16262 6135,16273 "/>
  <polyline class="fil1 str0" points="8270,16131 8102,16134 7934,16134 7833,16119 7731,16106 7636,16123 7541,16138 7407,16115 7273,16092 7201,16107 7130,16124 6987,16111 6844,16097 6799,16111 6754,16124 6653,16114 6552,16101 6475,16108 6397,16115 6323,16108 6248,16101 6194,16109 6141,16120 "/>
  <polygon class="fil0 str0" points="5690,16305 5674,16376 5658,16447 5575,16433 5492,16419 5529,16376 5566,16332 5628,16319 "/>
  <polyline class="fil1 str1" points="6446,15952 6341,15906 6236,15859 "/>
  <polyline class="fil1 str1" points="6321,15896 6317,15955 6312,16014 "/>
  <polygon class="fil0 str0" points="8067,16277 8051,16349 8035,16420 7952,16406 7869,16391 7906,16348 7943,16304 8005,16291 "/>
  <polygon class="fil3 str0" points="4086,14987 4086,15349 4086,15711 4539,15688 4954,15811 5141,15830 5442,15769 6070,15757 6773,15771 7154,15705 7549,15721 7748,15784 7922,15813 8259,15750 8482,15707 8485,15708 8488,15709 8518,15693 8548,15676 8599,15627 8649,15578 8668,15494 8687,15410 8697,15324 8706,15238 8665,15169 8623,15100 8570,15044 8516,14987 7947,14995 7378,15002 6645,14982 5912,14962 5312,14985 4712,15007 4399,14997 "/>
  <polygon class="fil0 str0" points="7724,15508 7704,15597 7684,15685 7581,15668 7478,15650 7524,15596 7569,15541 7647,15525 "/>
  <polygon class="fil0 str0" points="7237,15458 7221,15529 7204,15599 7122,15585 7040,15571 7077,15528 7113,15485 7175,15472 "/>
  <polygon class="fil0 str0" points="6834,15498 6815,15582 6796,15666 6699,15650 6601,15633 6645,15582 6688,15530 6761,15514 "/>
  <polyline class="fil1 str1" points="5335,15227 5313,15229 5292,15237 5276,15246 5263,15258 5255,15273 5254,15289 5265,15304 5280,15318 5294,15329 5307,15340 5315,15356 5316,15373 5310,15387 5296,15398 5276,15405 5253,15405 5236,15404 5222,15398 "/>
  <polyline class="fil1 str1" points="5263,15300 5204,15276 5145,15251 "/>
  <polyline class="fil1 str1" points="6489,15268 6384,15222 6279,15175 "/>
  <polyline class="fil1 str1" points="6365,15212 6361,15271 6356,15330 "/>
  <polygon class="fil0 str0" points="4086,13294 4086,14141 4086,14988 4391,15005 4696,15021 5310,14998 5923,14974 6651,14995 7378,15016 7946,15005 8514,14993 8562,14938 8604,14880 8634,14816 8647,14748 8629,14697 8611,14645 8626,14596 8647,14546 8650,14501 8647,14457 8629,14403 8617,14348 8633,14301 8653,14254 8656,14196 8653,14137 8649,14099 8647,14061 8659,14005 8671,13948 8671,13899 8671,13850 8680,13789 8689,13727 8686,13678 8683,13628 8691,13546 8695,13464 8685,13415 8659,13370 8617,13334 8562,13313 8490,13304 8417,13294 7581,13292 6744,13290 6050,13297 5355,13304 4721,13299 "/>
  <polyline class="fil1 str0" points="8647,14080 8496,14076 8345,14071 8218,14081 8091,14090 7934,14083 7777,14075 7653,14075 7529,14075 7403,14075 7276,14075 7243,14087 7209,14099 7101,14095 6992,14090 "/>
  <polyline class="fil1 str0" points="8617,14362 8502,14372 8387,14381 8218,14381 8049,14381 7928,14384 7807,14386 7702,14377 7596,14367 7515,14377 7433,14386 7349,14377 7264,14367 7161,14374 7058,14381 "/>
  <polyline class="fil1 str0" points="8604,14649 8493,14657 8381,14664 8257,14659 8133,14654 8037,14659 7940,14664 7832,14664 7723,14664 7623,14662 7523,14659 7436,14664 7348,14668 7261,14661 7173,14654 7107,14661 7040,14668 "/>
  <polyline class="fil1 str1" points="4934,14325 4952,14334 4974,14340 4994,14342 5014,14340 5033,14333 5048,14321 5053,14304 5053,14286 5052,14271 5053,14256 5061,14240 5075,14226 5092,14220 5111,14219 5132,14225 5149,14236 5160,14246 5166,14258 "/>
  <polyline class="fil1 str1" points="5050,14308 5073,14357 5095,14406 "/>
  <polyline class="fil1 str1" points="5444,14252 5426,14262 5411,14276 5402,14290 5397,14304 5398,14321 5406,14336 5425,14346 5446,14353 5465,14358 5482,14364 5499,14376 5510,14391 5511,14405 5505,14419 5491,14432 5471,14441 5455,14445 5438,14445 "/>
  <polyline class="fil1 str1" points="5421,14343 5354,14341 5287,14339 "/>
  <polyline class="fil1 str1" points="5711,14651 5848,14510 5984,14368 "/>
  <polyline class="fil1 str1" points="5841,14721 5979,14581 6117,14440 "/>
  <polyline class="fil1 str2" points="5776,14684 5919,14537 6061,14390 "/>
  <polygon class="fil0 str0" points="4087,12643 4087,12968 4087,13292 4719,13301 5350,13309 6312,13306 7274,13303 7848,13304 8422,13297 8519,13286 8609,13258 8652,13230 8681,13191 8694,13149 8688,13107 8644,13075 8609,13040 8635,13003 8673,12968 8686,12923 8688,12878 8686,12831 8666,12789 8589,12745 8501,12710 8425,12669 8343,12643 7952,12629 7561,12615 7170,12638 6778,12660 6445,12638 6111,12615 5777,12638 5443,12660 5099,12641 4754,12621 4421,12632 "/>
  <polyline class="fil1 str0" points="8609,13046 8476,13038 8343,13035 8239,13050 8135,13063 8027,13049 7920,13035 7759,13041 7597,13051 7461,13048 7324,13046 7267,13055 7209,13063 7094,13050 6979,13040 6900,13051 6821,13068 "/>
  <polygon class="fil6 str0" points="4087,12157 4087,12400 4087,12643 4421,12632 4754,12621 5099,12644 5443,12666 5781,12641 6118,12615 6452,12643 6786,12671 7166,12646 7546,12621 7959,12635 8372,12649 8329,12627 8286,12604 8257,12582 8228,12559 8171,12545 8114,12531 8114,12512 8114,12492 8078,12473 8042,12453 8056,12431 8070,12408 8063,12383 8056,12358 8099,12344 8142,12330 8171,12305 8200,12280 8250,12263 8300,12246 8304,12221 8307,12196 8329,12177 8350,12157 7931,12166 7511,12174 7156,12163 6800,12151 6463,12168 6125,12185 5784,12163 5443,12140 5038,12160 4632,12179 4360,12168 "/>
  <polyline class="fil1 str0" points="8111,12527 8048,12516 7984,12505 7932,12503 7879,12504 7767,12520 7655,12532 7548,12516 7441,12503 7318,12521 7196,12539 7108,12525 7020,12508 6922,12517 6824,12528 6758,12515 6691,12505 6619,12521 6547,12539 6462,12516 6377,12491 6255,12515 6134,12537 6044,12513 5954,12491 5867,12511 5781,12542 "/>
  <polyline class="fil1 str0" points="8058,12364 8016,12357 7973,12348 7915,12358 7857,12370 7737,12366 7616,12358 7519,12340 7422,12324 7295,12344 7168,12365 7093,12349 7018,12329 6912,12341 6806,12355 6756,12348 6705,12342 6628,12343 6550,12343 6471,12331 6391,12318 6262,12342 6133,12364 6045,12345 5958,12329 5872,12343 5788,12369 "/>
  <polygon class="fil0 str0" points="4087,11670 4087,11914 4087,12157 4346,12171 4604,12185 4805,12177 5005,12168 5221,12157 5436,12146 5777,12168 6118,12190 6459,12174 6800,12157 7141,12171 7482,12185 7909,12174 8336,12162 8376,12154 8415,12146 8473,12136 8530,12123 8588,12100 8645,12073 8689,12060 8724,12039 8735,11996 8731,11950 8722,11920 8714,11889 8718,11835 8716,11782 8698,11748 8666,11721 8606,11687 8537,11670 8196,11662 7855,11654 7536,11665 7216,11676 6850,11671 6484,11665 6111,11657 5738,11649 5411,11652 5084,11654 4794,11668 4503,11682 4295,11676 "/>
  <polyline class="fil1 str0" points="8711,11882 8581,11877 8451,11875 8349,11885 8246,11894 8168,11888 8089,11882 8018,11888 7947,11894 7853,11888 7758,11882 7652,11887 7546,11894 "/>
  <polyline class="fil1 str1" points="5353,11808 5442,11873 5530,11937 "/>
  <polyline class="fil1 str1" points="5457,11886 5480,11829 5502,11772 "/>
  <polygon class="fil4 str0" points="7178,13648 7286,13684 7331,13771 7286,13859 7178,13895 7069,13859 7024,13771 7069,13684 "/>
  <polygon class="fil4 str0" points="7179,13716 7229,13733 7250,13775 7229,13817 7179,13834 7129,13817 7108,13775 7129,13733 "/>
  <polyline class="fil1 str0" points="7170,13648 7171,13681 7172,13714 "/>
  <polyline class="fil1 str0" points="7254,13768 7292,13767 7329,13765 "/>
  <polyline class="fil1 str0" points="7105,13772 7065,13773 7025,13774 "/>
  <polyline class="fil1 str0" points="7184,13833 7184,13864 7184,13894 "/>
  <polyline class="fil1 str0" points="7060,13692 7093,13714 7125,13735 "/>
  <polyline class="fil1 str0" points="7125,13817 7096,13836 7067,13855 "/>
  <polyline class="fil1 str0" points="7231,13813 7262,13832 7292,13851 "/>
  <polyline class="fil1 str0" points="7228,13727 7257,13706 7285,13685 "/>
  <polygon class="fil0 str0" points="4087,10654 4087,11162 4087,11670 4635,11676 5182,11682 5474,11676 5766,11670 6084,11676 6401,11682 6765,11676 7129,11670 7482,11679 7835,11687 8211,11696 8583,11679 8631,11632 8643,11564 8628,11527 8614,11491 8623,11449 8636,11406 8645,11336 8650,11266 8652,11207 8643,11148 8616,11132 8592,11114 8611,11086 8636,11058 8641,11002 8643,10946 8651,10910 8657,10873 8652,10825 8643,10777 8646,10700 8614,10654 6351,10654 "/>
  <polyline class="fil1 str0" points="8596,11110 8467,11107 8337,11105 8228,11109 8120,11110 8052,11101 7983,11093 7836,11111 7688,11127 7634,11113 7580,11099 7457,11113 7335,11127 7245,11114 7154,11099 7093,11105 7032,11116 "/>
  <polygon class="fil5 str0" points="4751,11005 4661,11048 4571,11091 4533,11013 4495,10935 4623,10970 "/>
  <polygon class="fil5 str0" points="4571,11091 4617,11036 4663,10981 4624,10971 4585,10960 4578,11026 "/>
  <polygon class="fil5 str0" points="6846,11051 6876,10972 6906,10893 7002,10931 7097,10968 6972,11010 "/>
  <polygon class="fil5 str0" points="6906,10893 6919,10958 6932,11022 6970,11010 7008,10997 6957,10945 "/>
  <polyline class="fil1 str1" points="5860,10967 5919,11019 5977,11071 "/>
  <polyline class="fil1 str1" points="5163,11056 5220,11006 5277,10956 "/>
  <polyline class="fil1 str1" points="7963,10935 8021,10987 8079,11039 "/>
  <polyline class="fil1 str1" points="7614,11044 7671,10994 7728,10944 "/>
  <polygon class="fil2 str0" points="4083,7265 4084,8958 4084,10650 6354,10649 8623,10648 8635,10561 8647,10474 8647,10378 8647,10281 8659,9988 8670,9694 8641,9396 8612,9098 8641,8768 8670,8438 8647,8117 8623,7796 8565,7682 8506,7567 8412,7494 8317,7421 8259,7329 8200,7237 8100,7169 7999,7100 7846,7097 7693,7100 7481,7130 7270,7164 7046,7186 6822,7200 6593,7204 6363,7210 6063,7245 5763,7274 5404,7261 5045,7246 4733,7269 4421,7292 4210,7246 "/>
  <polyline class="fil1 str4" points="4087,10651 6357,10651 8626,10651 "/>
  <polyline class="fil1 str5" points="4080,10651 6353,10651 8626,10651 "/>
  <polygon class="fil7 str0" points="6972,9432 7136,9429 7300,9425 7372,9643 7350,9804 7296,9810 7241,9800 7202,9781 7172,9753 7146,9714 7113,9683 7038,9693 6963,9709 6850,9714 6744,9695 6722,9654 6741,9607 6798,9571 6863,9544 6896,9518 6922,9488 6947,9460 "/>
  <polygon class="fil4 str0" points="6973,9431 7137,9429 7301,9426 7297,9387 7290,9348 7278,9306 7254,9269 7216,9247 7169,9238 7112,9238 7060,9250 7015,9331 "/>
  <polygon class="fil7 str0" points="7903,9555 8070,9553 8237,9551 8251,9567 8268,9582 8310,9618 8332,9664 8328,9683 8316,9701 8282,9733 8251,9759 8244,9778 8242,9798 8241,9819 8242,9841 8229,9914 8207,9983 8167,10080 8102,10151 8068,10156 8032,10157 7994,10150 7962,10140 7948,10130 7944,10117 7959,10066 7981,10006 7963,9904 7905,9807 7843,9755 7789,9706 7807,9617 "/>
  <polygon class="fil4 str0" points="8236,9551 8225,9506 8213,9460 8200,9372 8180,9298 8149,9266 8114,9258 8064,9272 8016,9298 7985,9316 7963,9345 7960,9391 7963,9434 7962,9459 7957,9478 7948,9497 7935,9514 7917,9534 7898,9554 8067,9553 "/>
  <polygon class="fil4 str0" points="4591,10083 4760,10146 4936,10191 5023,10186 5089,10148 5087,10084 5047,10019 5021,9989 4997,9959 5018,9920 5062,9889 5128,9886 5185,9868 5223,9800 5213,9717 5177,9626 5102,9556 4987,9529 4881,9556 4882,9631 4909,9717 4892,9754 4849,9769 4726,9755 4605,9749 4590,9788 4625,9841 4667,9864 4701,9890 4673,9918 4618,9933 4552,9927 4494,9933 4476,9979 4494,10030 4536,10062 "/>
  <polygon class="fil4 str0" points="6597,10378 6602,10424 6637,10459 6717,10469 6789,10451 6813,10424 6823,10399 6830,10372 6833,10344 6836,10311 6857,10281 6914,10263 6981,10254 7093,10257 7190,10265 7226,10259 7248,10239 7252,10202 7231,10165 7177,10142 7113,10131 6963,10135 6799,10118 6733,10084 6688,10042 6663,9996 6644,9955 6618,9933 6580,9923 6513,9917 6452,9937 6449,9997 6476,10057 6502,10097 6530,10134 6582,10253 "/>
  <polygon class="fil4 str0" points="5804,10289 5703,10294 5601,10297 5587,10252 5736,10178 5814,10114 5906,10069 5970,10116 6039,10172 6144,10262 "/>
  <polygon class="fil4 str0" points="5396,7472 5830,7543 6009,7714 5830,7885 5396,7956 4962,7885 4783,7714 4962,7543 "/>
  <polygon class="fil5 str0" points="4913,7728 4943,7649 4973,7570 5069,7608 5164,7646 5039,7687 "/>
  <polygon class="fil5 str0" points="4973,7570 4986,7635 4999,7700 5038,7687 5076,7674 5025,7622 "/>
  <polygon class="fil5 str0" points="5274,7596 5379,7582 5483,7568 5482,7652 5480,7735 5377,7666 "/>
  <polygon class="fil5 str0" points="5483,7568 5414,7606 5345,7644 5377,7665 5408,7686 5446,7627 "/>
  <polygon class="fil5 str0" points="5658,7735 5657,7653 5656,7570 5762,7585 5867,7599 5763,7667 "/>
  <polygon class="fil5 str0" points="5656,7570 5693,7629 5730,7688 5762,7668 5793,7647 5725,7609 "/>
  <polygon class="fil5 str0" points="5164,7896 5164,7814 5163,7731 5269,7746 5374,7761 5269,7829 "/>
  <polygon class="fil5 str0" points="5163,7731 5200,7791 5236,7850 5268,7829 5300,7808 5232,7770 "/>
  <polygon class="fil5 str0" points="5396,7860 5470,7801 5543,7741 5606,7809 5668,7877 5532,7869 "/>
  <polygon class="fil5 str0" points="5543,7741 5516,7804 5489,7866 5531,7869 5572,7871 5558,7806 "/>
  <polygon class="fil4 str0" points="6472,8170 6423,8164 6378,8148 6366,8132 6366,8112 6372,8093 6387,8081 6443,8090 6499,8098 6534,8072 6508,8042 6448,8020 6384,7999 6371,7978 6381,7955 6555,7941 6683,8002 6710,8071 6730,8126 6684,8155 6623,8168 6548,8174 "/>
  <polygon class="fil4 str0" points="7402,8013 7475,8004 7558,8001 7611,8015 7662,8034 7695,8056 7729,8076 7806,8079 7829,8024 7826,7990 7810,7958 7740,7932 7676,7916 7662,7895 7657,7871 7658,7853 7663,7835 7664,7793 7604,7776 7521,7833 7395,7922 7366,7939 7346,7963 7346,7982 7357,7999 7378,8009 "/>
  <polyline class="fil1 str1" points="5420,10482 5351,10405 5282,10327 "/>
  <polyline class="fil1 str1" points="5339,10401 5302,10453 5265,10505 "/>
  <polyline class="fil1 str1" points="5507,10006 5507,10101 5507,10195 "/>
  <polyline class="fil1 str1" points="5506,10118 5574,10092 5642,10066 "/>
  <polyline class="fil1 str1" points="7721,10458 7728,10364 7734,10269 "/>
  <polyline class="fil1 str1" points="7730,10346 7660,10370 7590,10393 "/>
  <polygon class="fil5 str0" points="5811,9289 5863,9193 5915,9097 6029,9155 6142,9213 5977,9251 "/>
  <polygon class="fil5 str0" points="5915,9097 5920,9180 5924,9263 5975,9251 6025,9239 5970,9168 "/>
  <polyline class="fil1 str1" points="6348,9557 6405,9507 6462,9457 "/>
  <polyline class="fil1 str1" points="5919,9446 5978,9498 6036,9550 "/>
  <polyline class="fil1 str1" points="7510,10034 7567,9984 7624,9934 "/>
  <polyline class="fil1 str1" points="7050,9931 7109,9983 7167,10035 "/>
  <polyline class="fil1 str1" points="4759,10413 4816,10363 4873,10313 "/>
  <polyline class="fil1 str1" points="4362,10327 4421,10379 4479,10431 "/>
  <polyline class="fil1 str1" points="4262,9389 4319,9339 4376,9289 "/>
  <polyline class="fil1 str1" points="4562,9376 4621,9428 4679,9480 "/>
  <polyline class="fil1 str1" points="5079,8805 5136,8755 5193,8705 "/>
  <polyline class="fil1 str1" points="5516,8809 5574,8861 5632,8913 "/>
  <polyline class="fil1 str1" points="6524,8745 6581,8695 6638,8645 "/>
  <polyline class="fil1 str1" points="6929,8676 6987,8728 7045,8780 "/>
  <polyline class="fil1 str1" points="7828,8939 7886,8889 7943,8839 "/>
  <polyline class="fil1 str1" points="7473,8858 7532,8910 7590,8962 "/>
  <polyline class="fil1 str1" points="5911,8423 5968,8373 6025,8323 "/>
  <polyline class="fil1 str1" points="5492,8284 5551,8336 5609,8388 "/>
  <polygon class="fil5 str0" points="6903,7639 7023,7597 7143,7555 7175,7656 7207,7756 7055,7698 "/>
  <polygon class="fil5 str0" points="7143,7555 7075,7617 7007,7679 7054,7697 7100,7715 7122,7635 "/>
  <polygon class="fil3 str0" points="4091,6561 4088,6914 4084,7267 4258,7282 4432,7297 4734,7277 5036,7257 5393,7267 5750,7277 6066,7245 6381,7212 6610,7212 6838,7212 7057,7192 7275,7172 7481,7137 7687,7102 7850,7105 8013,7108 8043,7098 8073,7087 8166,7045 8259,7002 8332,6955 8407,6911 8476,6892 8542,6871 8598,6831 8639,6781 8656,6727 8658,6671 8641,6623 8607,6579 8602,6575 8596,6571 8576,6567 8549,6566 8453,6557 8356,6556 8266,6567 8176,6581 8083,6591 7989,6596 7908,6589 7828,6576 7748,6556 7668,6536 7562,6516 7455,6506 7361,6514 7269,6531 7185,6551 7101,6571 6996,6589 6889,6596 6788,6568 6689,6531 6585,6512 6481,6495 6358,6483 6233,6480 6110,6484 5988,6496 5901,6511 5815,6531 5726,6553 5635,6571 5529,6573 5422,6566 5332,6550 5242,6531 5162,6513 5081,6501 4969,6498 4856,6506 4753,6529 4650,6556 4561,6573 4470,6581 4344,6571 4219,6551 4181,6533 4142,6521 4108,6534 "/>
  <polygon class="fil5 str0" points="6216,6906 6312,6873 6407,6839 6433,6919 6458,6999 6337,6953 "/>
  <polygon class="fil5 str0" points="6407,6839 6353,6889 6299,6938 6336,6952 6373,6966 6390,6903 "/>
  <polygon class="fil4 str0" points="4953,6925 5003,6939 5023,6974 5003,7010 4953,7024 4903,7010 4883,6974 4903,6939 "/>
  <polygon class="fil8 str0" points="4955,6964 4964,6968 4968,6976 4964,6984 4955,6987 4946,6984 4942,6976 4946,6968 "/>
  <polygon class="fil4 str0" points="5733,6813 5783,6828 5804,6863 5783,6898 5733,6912 5684,6898 5663,6863 5684,6828 "/>
  <polygon class="fil8 str0" points="5736,6853 5745,6856 5748,6864 5745,6873 5736,6876 5727,6873 5723,6864 5727,6856 "/>
  <polygon class="fil4 str0" points="7126,7025 7015,7030 6933,7005 6952,6988 6983,6981 7020,6957 7045,6937 7065,6946 7076,6963 7111,6984 7148,6997 7154,7016 "/>
  <polygon class="fil4 str0" points="5517,7124 5406,7130 5324,7105 5344,7087 5375,7080 5412,7056 5436,7037 5457,7045 5468,7062 5502,7083 5539,7097 5545,7115 "/>
  <polyline class="fil1 str4" points="4086,10653 6354,10651 8621,10648 8636,10549 8650,10450 8650,10367 8650,10283 "/>
  <polyline class="fil1 str5" points="4086,10653 6357,10651 8627,10648 8636,10558 8644,10468 8647,10373 8650,10278 "/>
  <polygon class="fil3 str0" points="7997,18807 7912,18836 7826,18864 7796,18803 7765,18741 7832,18741 7899,18741 7948,18774 "/>
  <polygon class="fil3 str0" points="7387,18989 7280,19025 7173,19061 7135,18984 7096,18906 7181,18906 7265,18906 7326,18948 "/>
  <polygon class="fil3 str0" points="6326,18594 6225,18628 6123,18662 6087,18589 6050,18515 6130,18515 6210,18515 6268,18555 "/>
  <polygon class="fil3 str0" points="6660,18412 6553,18448 6445,18484 6407,18407 6369,18329 6453,18329 6537,18329 6599,18371 "/>
  <polygon class="fil3 str0" points="7761,18324 7663,18357 7565,18389 7530,18318 7495,18247 7572,18247 7649,18247 7705,18286 "/>
  <polygon class="fil3 str0" points="8646,18463 8548,18496 8449,18528 8414,18457 8378,18386 8456,18386 8533,18386 8590,18425 "/>
  <polygon class="fil3 str0" points="8429,18827 8335,18859 8241,18890 8208,18822 8174,18754 8248,18754 8322,18754 8376,18791 "/>
  <polygon class="fil4 str3" points="4521,8727 4607,8762 4642,8848 4607,8934 4521,8969 4435,8934 4400,8848 4435,8762 "/>
  <polyline class="fil1 str3" points="4454,8757 4517,8841 4580,8924 "/>
  <polyline class="fil1 str3" points="4539,8738 4517,8841 4495,8943 "/>
  <polyline class="fil1 str3" points="4600,8777 4517,8841 4433,8904 "/>
  <polyline class="fil1 str3" points="4619,8863 4517,8841 4415,8818 "/>
  <polygon class="fil4 str3" points="5317,9161 5403,9196 5439,9282 5403,9368 5317,9403 5232,9368 5196,9282 5232,9196 "/>
  <polyline class="fil1 str3" points="5250,9191 5313,9275 5376,9358 "/>
  <polyline class="fil1 str3" points="5335,9173 5313,9275 5291,9377 "/>
  <polyline class="fil1 str3" points="5397,9212 5314,9275 5230,9338 "/>
  <polyline class="fil1 str3" points="5415,9297 5313,9275 5211,9253 "/>
  <polygon class="fil4 str3" points="5958,9647 6044,9682 6079,9768 6044,9854 5958,9889 5872,9854 5837,9768 5872,9682 "/>
  <polyline class="fil1 str3" points="5891,9677 5954,9761 6017,9844 "/>
  <polyline class="fil1 str3" points="5976,9658 5954,9761 5932,9863 "/>
  <polyline class="fil1 str3" points="6037,9697 5954,9761 5870,9824 "/>
  <polyline class="fil1 str3" points="6056,9783 5954,9761 5851,9738 "/>
  <polygon class="fil4 str3" points="6572,9117 6657,9152 6693,9238 6657,9324 6572,9359 6486,9324 6450,9238 6486,9152 "/>
  <polyline class="fil1 str3" points="6504,9147 6567,9231 6630,9314 "/>
  <polyline class="fil1 str3" points="6590,9128 6568,9231 6545,9333 "/>
  <polyline class="fil1 str3" points="6651,9167 6568,9230 6484,9293 "/>
  <polyline class="fil1 str3" points="6670,9253 6568,9231 6465,9208 "/>
  <polygon class="fil4 str3" points="5513,10873 5598,10909 5634,10994 5598,11080 5513,11116 5427,11080 5391,10994 5427,10909 "/>
  <polyline class="fil1 str3" points="5445,10904 5509,10988 5572,11071 "/>
  <polyline class="fil1 str3" points="5531,10885 5509,10987 5486,11089 "/>
  <polyline class="fil1 str3" points="5592,10924 5509,10987 5425,11050 "/>
  <polyline class="fil1 str3" points="5611,11009 5509,10987 5406,10965 "/>
  <polygon class="fil4 str3" points="6237,10891 6323,10926 6358,11012 6323,11098 6237,11133 6151,11098 6116,11012 6151,10926 "/>
  <polyline class="fil1 str3" points="6170,10921 6233,11005 6296,11088 "/>
  <polyline class="fil1 str3" points="6255,10902 6233,11005 6211,11107 "/>
  <polyline class="fil1 str3" points="6316,10942 6233,11005 6149,11068 "/>
  <polyline class="fil1 str3" points="6335,11027 6233,11005 6131,10982 "/>
  <polygon class="fil4 str3" points="6900,11798 6986,11833 7021,11919 6986,12005 6900,12040 6814,12005 6779,11919 6814,11833 "/>
  <polyline class="fil1 str3" points="6833,11828 6896,11912 6959,11995 "/>
  <polyline class="fil1 str3" points="6918,11809 6896,11912 6874,12014 "/>
  <polyline class="fil1 str3" points="6979,11848 6896,11912 6813,11975 "/>
  <polyline class="fil1 str3" points="6998,11934 6896,11912 6794,11889 "/>
  <polygon class="fil4 str3" points="4430,11875 4516,11910 4552,11996 4516,12082 4430,12117 4345,12082 4309,11996 4345,11910 "/>
  <polyline class="fil1 str3" points="4363,11905 4426,11989 4489,12072 "/>
  <polyline class="fil1 str3" points="4448,11886 4426,11989 4404,12091 "/>
  <polyline class="fil1 str3" points="4510,11925 4427,11989 4343,12052 "/>
  <polyline class="fil1 str3" points="4529,12011 4427,11989 4324,11966 "/>
  <polygon class="fil4 str3" points="4896,12962 4981,12997 5017,13083 4981,13169 4896,13204 4810,13169 4774,13083 4810,12997 "/>
  <polyline class="fil1 str3" points="4828,12992 4891,13076 4954,13159 "/>
  <polyline class="fil1 str3" points="4913,12973 4891,13076 4869,13178 "/>
  <polyline class="fil1 str3" points="4975,13012 4892,13076 4808,13139 "/>
  <polyline class="fil1 str3" points="4994,13098 4892,13076 4789,13053 "/>
  <polygon class="fil4 str3" points="6548,12777 6634,12812 6669,12898 6634,12984 6548,13019 6462,12984 6427,12898 6462,12812 "/>
  <polyline class="fil1 str3" points="6480,12807 6544,12891 6607,12974 "/>
  <polyline class="fil1 str3" points="6566,12788 6544,12891 6521,12993 "/>
  <polyline class="fil1 str3" points="6627,12828 6544,12891 6460,12954 "/>
  <polyline class="fil1 str3" points="6646,12913 6544,12891 6441,12868 "/>
  <polygon class="fil4 str3" points="6107,13686 6193,13721 6228,13807 6193,13893 6107,13928 6021,13893 5986,13807 6021,13721 "/>
  <polyline class="fil1 str3" points="6039,13716 6103,13800 6166,13883 "/>
  <polyline class="fil1 str3" points="6125,13697 6103,13800 6080,13902 "/>
  <polyline class="fil1 str3" points="6186,13736 6103,13800 6019,13863 "/>
  <polyline class="fil1 str3" points="6205,13822 6103,13800 6000,13777 "/>
  <polygon class="fil4 str3" points="4529,13967 4614,14002 4650,14088 4614,14174 4529,14209 4443,14174 4407,14088 4443,14002 "/>
  <polyline class="fil1 str3" points="4461,13998 4524,14081 4587,14164 "/>
  <polyline class="fil1 str3" points="4547,13979 4525,14081 4502,14183 "/>
  <polyline class="fil1 str3" points="4608,14018 4525,14081 4441,14144 "/>
  <polyline class="fil1 str3" points="4627,14103 4525,14081 4422,14059 "/>
  <polygon class="fil4 str3" points="4801,15250 4887,15285 4922,15371 4887,15457 4801,15492 4715,15457 4680,15371 4715,15285 "/>
  <polyline class="fil1 str3" points="4734,15280 4797,15364 4860,15447 "/>
  <polyline class="fil1 str3" points="4819,15262 4797,15364 4775,15466 "/>
  <polyline class="fil1 str3" points="4880,15301 4797,15364 4713,15427 "/>
  <polyline class="fil1 str3" points="4899,15386 4797,15364 4695,15342 "/>
  <polygon class="fil4 str3" points="4318,15816 4404,15851 4439,15937 4404,16023 4318,16058 4232,16023 4197,15937 4232,15851 "/>
  <polyline class="fil1 str3" points="4250,15846 4314,15930 4377,16013 "/>
  <polyline class="fil1 str3" points="4336,15828 4314,15930 4291,16032 "/>
  <polyline class="fil1 str3" points="4397,15867 4314,15930 4230,15993 "/>
  <polyline class="fil1 str3" points="4416,15952 4314,15930 4211,15908 "/>
  <polygon class="fil4 str3" points="5827,15893 5913,15928 5948,16014 5913,16100 5827,16135 5741,16100 5706,16014 5741,15928 "/>
  <polyline class="fil1 str3" points="5760,15923 5823,16007 5886,16090 "/>
  <polyline class="fil1 str3" points="5845,15904 5823,16007 5801,16109 "/>
  <polyline class="fil1 str3" points="5906,15943 5823,16007 5739,16070 "/>
  <polyline class="fil1 str3" points="5925,16029 5823,16007 5721,15984 "/>
  <polygon class="fil4 str3" points="8187,15265 8273,15300 8308,15386 8273,15472 8187,15507 8101,15472 8066,15386 8101,15300 "/>
  <polyline class="fil1 str3" points="8120,15295 8183,15379 8246,15462 "/>
  <polyline class="fil1 str3" points="8205,15276 8183,15379 8161,15481 "/>
  <polyline class="fil1 str3" points="8266,15315 8183,15379 8100,15442 "/>
  <polyline class="fil1 str3" points="8285,15401 8183,15379 8081,15356 "/>
  <polygon class="fil4 str3" points="7635,16179 7721,16214 7756,16300 7721,16386 7635,16421 7549,16386 7514,16300 7549,16214 "/>
  <polyline class="fil1 str3" points="7567,16209 7631,16293 7694,16376 "/>
  <polyline class="fil1 str3" points="7653,16190 7631,16293 7608,16395 "/>
  <polyline class="fil1 str3" points="7714,16229 7631,16293 7547,16356 "/>
  <polyline class="fil1 str3" points="7733,16315 7631,16293 7528,16270 "/>
  <polygon class="fil4 str3" points="6380,18061 6466,18096 6501,18182 6466,18268 6380,18303 6294,18268 6259,18182 6294,18096 "/>
  <polyline class="fil1 str3" points="6313,18091 6376,18175 6439,18258 "/>
  <polyline class="fil1 str3" points="6398,18072 6376,18175 6354,18277 "/>
  <polyline class="fil1 str3" points="6459,18111 6376,18175 6293,18238 "/>
  <polyline class="fil1 str3" points="6478,18197 6376,18175 6274,18152 "/>
  <polygon class="fil4 str3" points="8352,18065 8438,18101 8474,18186 8438,18272 8352,18308 8267,18272 8231,18186 8267,18101 "/>
  <polyline class="fil1 str3" points="8285,18096 8348,18180 8411,18263 "/>
  <polyline class="fil1 str3" points="8370,18077 8348,18179 8326,18281 "/>
  <polyline class="fil1 str3" points="8432,18116 8349,18179 8265,18242 "/>
  <polyline class="fil1 str3" points="8450,18201 8348,18179 8246,18157 "/>
  <polygon class="fil4 str3" points="7529,18699 7615,18735 7650,18821 7615,18906 7529,18942 7443,18906 7408,18821 7443,18735 "/>
  <polyline class="fil1 str3" points="7462,18730 7525,18814 7588,18897 "/>
  <polyline class="fil1 str3" points="7547,18711 7525,18813 7503,18915 "/>
  <polyline class="fil1 str3" points="7608,18750 7525,18813 7442,18876 "/>
  <polyline class="fil1 str3" points="7627,18835 7525,18813 7423,18791 "/>
  <polyline class="fil1 str3" points="4085,18899 5095,18900 6104,18900 "/>
  <polyline class="fil1 str3" points="4085,18689 5018,18690 5950,18690 "/>
  <polyline class="fil1 str3" points="4085,18471 4929,18470 5773,18469 "/>
  <polygon class="fil3 str3" points="4784,18765 4742,18807 4696,18842 4647,18850 4598,18841 4559,18810 4525,18773 4494,18739 4457,18711 4420,18714 4391,18711 4383,18658 4404,18607 4450,18568 4511,18549 4545,18571 4577,18600 4631,18605 4685,18610 4711,18638 4739,18658 4775,18662 4811,18666 4837,18661 4846,18677 4858,18712 4845,18744 4817,18756 "/>
  <polygon class="fil3 str3" points="5361,18453 5319,18494 5273,18530 5224,18538 5175,18528 5135,18498 5102,18460 5071,18427 5033,18399 4997,18402 4968,18399 4960,18346 4981,18295 5026,18256 5088,18237 5122,18258 5154,18288 5208,18293 5262,18298 5288,18326 5316,18346 5352,18350 5388,18354 5414,18349 5423,18365 5435,18400 5422,18431 5393,18444 "/>
  <polygon class="fil3 str3" points="5687,18842 5676,18879 5662,18913 5624,18919 5585,18911 5554,18887 5528,18858 5503,18832 5474,18810 5445,18812 5423,18810 5416,18768 5433,18728 5469,18697 5517,18683 5543,18700 5569,18723 5611,18727 5653,18730 5655,18759 5650,18797 5674,18818 "/>
  <polyline class="fil1 str3" points="4085,18249 4885,18245 5685,18241 "/>
  <polyline class="fil1 str3" points="4066,18046 4737,18043 5408,18040 "/>
  <polyline class="fil1 str3" points="4085,17824 4558,17825 5031,17826 "/>
  <polygon class="fil3 str3" points="4628,18149 4586,18190 4540,18226 4491,18234 4442,18224 4402,18193 4369,18156 4337,18122 4300,18094 4263,18097 4235,18094 4227,18041 4248,17990 4293,17951 4355,17933 4389,17954 4421,17984 4475,17988 4529,17993 4555,18022 4583,18041 4619,18046 4655,18049 4681,18045 4690,18061 4702,18096 4689,18127 4660,18139 "/>
  <rect class="fil1 str6" x="4086" y="4058" width="4845" height="21748"/>
 </g>
</svg>
